<svg version="1.1" xmlns="http://www.w3.org/2000/svg" viewBox="0 0 428.41015625 283.1015625" width="856.8203125" height="566.203125">
  <!-- svg-source:excalidraw -->
  
  <defs>
    <style>
      @font-face {
        font-family: "Virgil";
        src: url("https://excalidraw.com/FG_Virgil.woff2");
      }
      @font-face {
        font-family: "Cascadia";
        src: url("https://excalidraw.com/Cascadia.woff2");
      }
    </style>
  </defs>
  <g transform="translate(10 38.23046875) rotate(0 204.205078125 117.435546875)"><path d="M-0.5599171823981487 0.8108712839635959 C110.78780966827028 1.9535371369539887, 222.40070748921792 3.069580525188665, 408.2637424109844 -0.945394541653438 M-0.40032578755043197 0.15433529372273633 C138.75617806751367 1.5488204675549522, 278.0064182748388 1.7680494087631, 408.73265567560253 -0.3633741603613982 M407.9792526339951 0.30262387080781195 C407.96431123458416 73.33326054120559, 407.9207066109744 146.41365634461727, 409.44813009944295 235.31094065551557 M408.25620634043014 0.5433155092670364 C407.6885498540342 75.01901002555798, 408.16086387999337 150.72467551630268, 408.27109986380503 235.3990408492037 M409.06501562485334 234.889164113331 C283.83925507804304 234.17958590670338, 160.80728743158085 234.91497545908715, -0.8901019733924929 234.1991620084754 M407.94415934526705 234.7053096895221 C272.90522213848453 237.3408143368263, 136.97682276199052 237.30862059417828, -0.28342643755159597 234.76409548128467 M0.3253840440917265 235.91462445173127 C-2.4533502087270236 179.99732522108263, -0.8941773347231653 122.48235944575143, -1.6547790906430857 0.3356047613573939 M-0.656339030359515 234.9450597877244 C-2.6859511759620984 173.17077800394867, -2.5685376751698303 111.41378883958609, 0.8177612603643906 -0.2330703098752372" stroke="#f65a8e" stroke-width="4" fill="none"></path></g><g transform="translate(26.7109375 10) rotate(0 65 11.5)"><text x="0" y="18" font-family="Helvetica, Segoe UI Emoji" font-size="20px" fill="#f65a8e" text-anchor="start" style="white-space: pre;" direction="ltr">&lt;ReactBricks&gt;</text></g><g transform="translate(24.23046875 81.16796875) rotate(0 189.728515625 90.0625)"><path d="M0.37813654538460395 -0.9463348335302811 C98.24978382982418 1.4220867530134738, 198.6701530231454 1.4261518285263355, 378.5190598269262 -1.191072607010579 M379.6306419931352 0.36418187990784645 C378.389169268643 60.25103964137379, 378.2265431213728 117.39852133472449, 378.1331199966371 181.60488891974092 M380.51620357046033 179.47669251072531 C271.4514789488741 181.72941102424286, 161.95386522167698 181.48029523470177, 1.117874566535284 179.4605369997065 M0.7276949249207973 178.6867208518088 C1.0470847678580322 135.4570817216998, 1.4756642175116577 91.15859875003807, -0.4766790308058262 -1.7734960280358791" stroke="#f65a8e" stroke-width="2.5" fill="none" stroke-dasharray="12 8"></path></g><g transform="translate(26.890625 52.84765625) rotate(0 88 11.5)"><text x="0" y="18" font-family="Helvetica, Segoe UI Emoji" font-size="20px" fill="#f65a8e" text-anchor="start" style="white-space: pre;" direction="ltr">ReactBricksContext</text></g><g transform="translate(46.6171875 128.265625) rotate(0 166.06640625 57.009765625)"><path d="M1.2244518304206646 1.1941407109095652 C90.41817530872787 -2.8507563269239604, 179.84758800891854 -1.143951045585153, 332.6902390532933 0.9058007189484336 M0.23658971764968786 -0.4856818881663918 C114.75566703100523 -0.7971039277863052, 230.32513208140838 -0.3401910493853072, 331.96736391667457 0.5180147674332163 M330.226773198694 1.5768866576254368 C333.8635289749511 38.79938420481414, 331.98810757011256 78.5453230667001, 331.3135216794908 114.03233445063236 M331.4396194834262 0.879896966740489 C330.84366882352197 22.306667645120623, 331.78913385180795 45.7857740626365, 331.8286879081279 113.62135699205103 M331.55209852020926 114.6475726455598 C241.45140127522262 114.227277055466, 150.76510207677995 115.20569775500823, 1.3588468868903738 115.20633438523532 M332.03583865127234 113.65028298467762 C229.9328885982877 111.68117316866464, 127.27433611275119 112.025708741524, 0.27859503508640066 114.20267348064692 M-1.6954653896391392 112.20970797911289 C-0.9465603018886029 81.1816303765365, 1.9389206980579914 50.96727729178239, -0.9119471944868565 -0.6030250750482082 M-0.681199012324214 113.86200734786692 C0.17971854289491596 84.30217684937308, 0.692913521132068 52.08508736345249, 0.6415280122309923 -0.8013215977698565" stroke="#2196f3" stroke-width="4" fill="none"></path></g><g transform="translate(52.703125 98.6171875) rotate(0 65.5 11.5)"><text x="0" y="18" font-family="Helvetica, Segoe UI Emoji" font-size="20px" fill="#2196f3" text-anchor="start" style="white-space: pre;" direction="ltr">&lt;PageViewer&gt;</text></g><g transform="translate(64.9453125 165.01953125) rotate(0 71.150390625 31.419921875)"><path d="M-1.7865550480782986 1.201274212449789 C33.07481012074496 -2.0696329307022827, 70.63905996364048 -2.1499607991638916, 142.69870078936222 -0.025915447622537613 M-0.33197310753166676 -0.6738736610859632 C49.50184942671114 -0.8289393366580045, 100.51117664540219 0.3671417652363742, 142.72814002446833 -0.9645976405590773 M142.59526050463322 -1.1918996013700962 C144.69311228958594 18.38481079660778, 142.78561094967353 35.65701298535714, 143.38435316458347 63.93973260745406 M143.13872399739924 0.3343597073107958 C142.5009780383571 20.66217305855171, 142.63949452404816 42.152891149172504, 143.0299204271287 63.117062928155065 M141.51122904196384 62.36520963534713 C105.57114571830974 63.402535249309366, 65.54610527185288 64.02085392625791, 1.4387532509863377 60.89802211150527 M142.29434045962992 61.936451794579625 C111.87603041114272 63.44941685018457, 80.58769282054128 64.84396520671763, 0.11397126130759716 62.34659832902253 M-0.6815937720239162 61.62687438353896 C0.27888932221401763 39.482589034648115, 0.07130100720394683 16.677106023403752, -0.33182453736662865 -1.5022432245314121 M0.6350593846291304 63.791399182751775 C0.3106065664864581 40.54421238243303, -0.3363193001173932 18.10897817305667, -0.9980399925261736 -0.3884792309254408" stroke="#8bc34a" stroke-width="1" fill="none"></path></g><g transform="translate(73.60546875 144.16796875) rotate(0 61.5 9)"><text x="0" y="14" font-family="Helvetica, Segoe UI Emoji" font-size="16px" fill="#8bc34a" text-anchor="start" style="white-space: pre;" direction="ltr">&lt;ContentViewer&gt;</text></g><g transform="translate(81.58203125 174.08203125) rotate(0 54.361328125 9.853515625)"><path d="M-1.0335379280149937 -1.9093232117593288 C34.31334614166481 0.7306411506729638, 71.9243255177411 1.607880258758596, 107.34776621684432 0.6832095421850681 M0.6011165995150805 0.4993751924484968 C27.650265936407237 -1.9267079350788114, 57.56825262986678 -1.7564588901836393, 107.76185250468552 -0.9575900752097368 M110.07293293939074 0.1709173303715943 C109.89653306512227 6.478082465248009, 109.24264358053514 11.606125215486829, 108.83307780674295 21.084746788899793 M108.88236443113601 -0.11701338360035152 C108.49202274979544 5.610244723031429, 108.00769712380352 13.421058824218564, 107.93355028194674 20.4935504759178 M108.26419418677688 21.284777406603098 C70.26216091965834 19.768984051283404, 32.62065850581129 21.45526704364638, -1.8452319540083408 20.515379313379526 M107.87031275220215 20.2340490501374 C77.03583928943334 20.073510194701885, 45.367688534794425 20.429142082614636, 0.0779885072261095 20.2902635615319 M-0.6659581715975946 19.349505062509706 C1.1234699752614687 14.1385601736838, -0.2834686072808836 9.828171674100304, -0.5545708886384091 0.33988453535494045 M-0.9506723542272084 19.594789098422552 C-0.4164350887745968 15.485205351260447, 1.1394467122285277 11.555231079755686, -0.6016982373239443 -0.35295761411725834" stroke="#8bc34a" stroke-width="1" fill="none"></path></g><g transform="translate(80.9375 202.1796875) rotate(0 54.171875 9.853515625)"><path d="M-1.3615888990461826 -1.2577458582818508 C22.618190792825768 0.5067611052776919, 47.7034964551567 -1.2353959963534726, 109.84476178511976 -0.6601204834878445 M-0.6187165956944227 -0.06879076547920704 C28.242832650832135 -0.9803726422815815, 57.856214859394825 -1.464079056981136, 107.52387470193206 -0.20051303692162037 M108.70869168918215 1.9557472620545013 C109.6348882025184 2.8073681918976945, 107.61538634144998 6.244578474736045, 109.97308508993227 18.579438621240115 M109.2107306913549 0.17338989290692552 C108.5574864199756 7.331561967201196, 108.55608808098113 13.544885621397043, 107.67263726119016 18.84198491094685 M109.7061703763902 21.101019982248545 C70.7298333567858 20.711035490973735, 32.4632703545154 18.703947664244915, 1.671058353036642 19.364790681749582 M107.46193814463912 19.766961125656962 C78.3108521265618 20.841772269795765, 46.642678172083095 20.89879537780129, 0.6772261280566454 20.089458672329783 M-0.3755729256699851 20.89508623414804 C0.9994149473579454 15.374185109161772, -0.788025013512015 8.968251512906136, 1.007651744523173 -0.5371713719177933 M0.8250028002385079 19.448451563015624 C0.4642117347117164 13.638585680224423, -0.05838805466046326 5.599618614540304, 0.9064524493605859 -0.1553012901586044" stroke="#8bc34a" stroke-width="1" fill="none"></path></g><g transform="translate(294.61328125 183.1640625) rotate(0 25.7734375 23.0546875)"><path d="M0.6149604879319668 0.7577129639685154 C19.123087441557438 0.622011770446843, 40.62956263126689 1.7838539974289596, 52.34136885032058 -0.9873511753976345 M-0.1904664020985365 -0.003695698454976082 C13.964384758137749 -0.4427389738280908, 28.196142122597667 -0.04671897861553587, 51.30531627126038 -0.2813949901610613 M50.49630754813552 0.05853104963898659 C53.2106004703723 18.17499753983866, 52.47057793027983 33.9875127666106, 53.387690123170614 48.0961855687201 M51.880335630849004 0.4781117122620344 C52.34867291188071 17.266112940598397, 50.469175324199895 32.943974322133, 51.157797457650304 46.94732823781669 M51.79424625262618 46.9671105183661 C31.500253923787387 44.73972190513363, 10.011982877907577 45.36954356326809, 0.18202393874526024 44.58692217245698 M52.266920210793614 45.4117452185601 C32.46682483941258 46.34024258335499, 12.248152273817688 46.437880773147626, -0.6199226956814528 45.82093176059425 M1.1771115623414516 46.46160078421235 C-1.4937583279729005 30.35222321690817, 0.8391332554697875 12.963552589301251, -1.7987009920179844 -1.0955857001245022 M-0.6842160802334547 46.31496605090797 C-0.013356566095899358 35.50673979592684, -0.18034881320054413 23.136591467581454, 0.21123051829636097 0.30834868364036083" stroke="#ff9800" stroke-width="1" fill="none"></path></g><g transform="translate(270.08984375 161.11328125) rotate(0 49 9)"><text x="0" y="14" font-family="Helvetica, Segoe UI Emoji" font-size="16px" fill="#ff9800" text-anchor="start" style="white-space: pre;" direction="ltr">&lt;ClickToEdit&gt;</text></g></svg>