<svg version="1.1" xmlns="http://www.w3.org/2000/svg" viewBox="0 0 1070.8987379807695 481.97896634615387" width="2141.797475961539" height="963.9579326923077">
  <!-- svg-source:excalidraw -->
  
  <defs>
    <style>
      @font-face {
        font-family: "Virgil";
        src: url("https://excalidraw.com/FG_Virgil.woff2");
      }
      @font-face {
        font-family: "Cascadia";
        src: url("https://excalidraw.com/Cascadia.woff2");
      }
    </style>
  </defs>
  <g transform="translate(10 10) rotate(0 525.4493689903848 230.98948317307693)"><path d="M-0.1797284111380577 -0.47013404518365864 C226.0584896495961 -3.3697441833945603, 450.9839162674592 -3.192408778044829, 1051.0420364651545 0.36113974899053575 M-0.25114394500851633 0.23063049390912058 C391.0070818145894 0.8432031305366074, 782.4027946042166 0.6792558105521714, 1050.9154289614125 0.09032661989331246 M1050.6376960205566 -0.6468093437223692 C1050.4202586743575 157.0918216148939, 1052.1156899044418 313.4118827717434, 1050.871873399663 462.45965665335007 M1050.4449791794395 -0.06767231121855086 C1052.6993166058758 94.22184368820052, 1052.5391307978052 188.76770103242148, 1051.0498744413642 462.2478079676529 M1051.056812170492 461.97817844278546 C733.2771077388326 462.87084710522976, 414.6069751455519 462.8944380037435, -0.7580071911215782 462.6138437164518 M1050.7209038864537 461.74939962975117 C766.6131470773631 461.3558384013855, 481.95591440767674 461.54100454575655, -0.24662178829312326 462.0986236488018 M-0.6576833800862028 462.62483947332015 C0.9217265519959548 325.54843033972094, 0.4244606428089391 189.04546987568958, 0.16157024645369586 0.766218458662788 M-0.1374629790794148 461.9929294868935 C2.1841879835609577 354.6576911437482, 1.9883523999725852 247.61165323153972, -0.41229940678584687 -0.2694606990417952" stroke="#f65a8e" stroke-width="4" fill="none"></path></g><g transform="translate(29.592247596153697 55.234375000000114) rotate(0 503.7657752403846 199.20252403846175)"><path d="M0.5595049396157264 -0.1370598092675209 C379.7274609743299 2.4086500134706483, 759.626326738048 2.7295141663789737, 1008.1083740029197 0.6482377275824547 M1007.4307080964331 0.6553937969561392 C1007.0120576811424 113.90091814294775, 1006.1550664609991 227.68145793137856, 1007.976348305827 398.56053886251374 M1006.8660823616843 398.79347173285066 C670.0076383883899 395.7024223214603, 330.86394203472435 396.00688785376315, -0.7674839481711389 399.1873859078842 M-0.7189197755351145 398.27808237520793 C1.1087021466592142 307.8401749993417, 2.592674123101571 216.8513430239129, 0.029459036080086203 1.1130558218430715" stroke="#f65a8e" stroke-width="2.5" fill="none" stroke-dasharray="12 8"></path></g><g transform="translate(32.652343749999886 25.76171875) rotate(0 88.00000000000006 11.5)"><text x="0" y="18" font-family="Helvetica, Segoe UI Emoji" font-size="20px" fill="#f65a8e" text-anchor="start" style="white-space: pre;" direction="ltr">ReactBricksContext</text></g><g transform="translate(71.67989497481699 153.22445913461524) rotate(0 91.93900240384608 126.1084735576924)"><path d="M-0.03513288125395775 0.10068899020552635 C44.715733875702604 1.2178779258192716, 90.15703413485643 1.935622872299069, 183.5863751393669 -1.2557197250425816 M0.7944348733872175 0.1657732743769884 C65.80709766087062 -0.8326616920031653, 131.92141259373977 -0.9219085014857398, 184.2359364495539 -0.281715689226985 M185.50041777155812 0.2246598652372061 C182.12529774274137 58.90290611446962, 180.6126417835897 117.70891521661565, 182.71842547200086 250.62457848423193 M183.08361613483572 0.3872170435389463 C182.8485154217504 72.45283584842885, 182.6043592286732 144.7569691906793, 184.15093569171842 252.37757791654244 M183.0923314315193 250.97740587907367 C126.83769515000253 252.6102956022016, 73.001275573808 249.17561287534156, -0.15605413541197777 251.32777664380603 M183.87406300165884 251.94202808419698 C138.65111634025027 251.15937521299753, 94.60147709766495 250.45585151752863, 0.15183630399405956 251.50717721263402 M-0.7739171638496138 250.62492609988507 C0.15914674001055656 160.3161677316007, -1.229495614732849 64.34516650455882, -1.589746486669856 -0.48239667239370887 M0.2980888279848179 252.24613466957607 C-2.341939780492476 175.31892550631187, -2.0462879189124945 99.97715693402824, 0.612702556521024 -0.5740446577676808" stroke="#2196f3" stroke-width="4" fill="none"></path></g><g transform="translate(316.28326035943223 152.36508413461524) rotate(0 91.93900240384608 126.1084735576924)"><path d="M1.5881567038595676 1.9122520051896572 C44.65048777760089 3.5384074087126294, 90.71428750978947 3.3432647819502392, 182.194665334832 -0.4796944297850132 M-0.3713091928511858 0.5339518804103136 C61.716187390762585 1.8988577922402592, 122.6521622916371 0.8079248865662785, 183.4579411015772 -0.8951578717678785 M183.9962143869486 -0.7357233966805437 C187.4237993599016 71.4026354659474, 185.22923293562016 141.40261090870723, 182.86482176436903 251.2560225604385 M183.3560341976463 0.18161871401633292 C183.34508436106782 98.3600907349138, 182.43454188649844 198.44681705433078, 183.11646310058165 252.92940221187305 M185.62238981546096 251.42565712647968 C120.27420044317526 252.15820506403315, 56.18651293246181 250.71786132643092, -0.03454982861876488 252.46216985898548 M184.21660445788137 252.76066140214436 C117.80101792792398 254.07266977005688, 52.78993998866483 253.06228419714657, 0.008591322228312492 252.9286623982572 M-0.24138238769803808 251.486485342421 C-0.5579859419719324 196.7994389781739, -0.15240976383979765 139.84917069295696, 0.7053258275426884 0.9063893996660082 M-0.2821385831941492 251.4560505159862 C-1.2534698478386335 176.6485218684915, -0.6457403401966281 101.65388587344061, 0.4415680852352345 -0.3220982205585426" stroke="#2196f3" stroke-width="4" fill="none"></path></g><g transform="translate(562.5099547778188 153.00811298076906) rotate(0 91.93900240384608 126.1084735576924)"><path d="M1.1052287183701992 -1.5045355521142483 C55.19868607741938 1.1042774327430092, 111.51265964130255 1.5560213931235634, 184.2547316101306 0.9794805087149143 M-0.8749124985188246 -0.9012160021811724 C59.1961409295079 -0.374343877281365, 120.37754782738325 -0.3433675222055288, 183.92762406700484 -0.8287337142974138 M183.26000498431225 0.1324569755425219 C186.63385947186174 81.47003978990661, 185.9988364177666 159.8966459030661, 182.5760310176206 251.312300881752 M183.21754558295638 0.80632893317434 C185.16529959331072 70.17461286055128, 185.46048541539363 140.00729346911206, 184.1808542142395 252.79528296579963 M182.25440771849088 251.56185428368383 C114.70205914643702 255.82628717913877, 51.27134982609215 254.10831525817167, 1.5504812560975552 251.49766020047002 M183.70970072382323 252.01051468158596 C134.4380924019501 253.0127323958287, 86.98447915148809 253.3844871017346, -0.4423158746212721 253.18736327195995 M0.8985097561919906 252.27092823399056 C1.4533736344053971 150.7853268665808, 0.6720089451008261 54.05549992524662, 1.3315265414835902 -0.07501006673156409 M0.4617790990350811 251.97414496952766 C-0.9701056965386927 201.64596831904672, -2.1840125551155545 151.04655416161987, 0.1336871477392006 0.10417327232147268" stroke="#2196f3" stroke-width="4" fill="none"></path></g><g transform="translate(812.5452795902015 153.35087603580337) rotate(0 91.93900240384608 126.1084735576924)"><path d="M0.5435045994818211 -0.489478413015604 C69.53292303469256 -3.349845064696798, 139.34693024553806 -0.9006738792033286, 184.87643458665542 -0.7961396612226963 M-0.809229226782918 -0.3040060382336378 C68.66872221400759 1.4424134721450579, 137.91659972596509 0.15935906073377248, 184.786723719623 0.770597817376256 M184.34148549994634 0.6009248821711415 C184.49512272880747 64.14749531909791, 183.57149572776805 128.30500719547598, 184.20620525260009 252.22943409265497 M184.6413609065513 0.6985369998925539 C182.14972911926785 94.36562473101739, 181.91469485710755 188.4353132169684, 183.23848234861026 252.3660329969532 M182.5280779820793 253.89914796071582 C121.40123597510345 250.46913815897946, 55.506453446887335 250.8769656555081, 1.8570811785757542 251.3825181456142 M183.04234485485784 252.07536385337346 C116.58812378646844 251.39366662760708, 50.948140312683535 251.76305896302196, -0.1439607460051775 253.08777669946187 M-0.898869340212337 251.06426160160157 C-2.0748962501480532 180.82136464837131, -1.9137096724810683 109.01317039917006, -0.8599847450785612 -0.41712701225101745 M-0.7448579001370325 251.83816641701563 C0.3343414809549468 180.2528253647396, 0.32860679177666735 109.9819618452102, 0.1311088822218012 -0.7845850507571027" stroke="#2196f3" stroke-width="4" fill="none"></path></g><g transform="translate(53.13067336309507 110.961495535714) rotate(0 109.92980196886441 155.8853236607143)"><path d="M0.08728446754148016 0.3105536137445673 C82.1171028366511 1.2835603215668867, 164.07374382707948 -0.21932569408340608, 218.77105565297646 0.9996356015983416 M0.143704211920967 0.03617235993723405 C64.20631052780752 -1.175451740988664, 128.13950144745476 -1.203833593014504, 219.61539249135257 -0.6051067239587647 M220.0568316503624 -0.041381961572272856 C221.68037198540537 66.22768125160238, 222.33575767836243 134.1760432356821, 218.46167190184823 311.5621636699441 M220.19953974116785 0.23280925839434266 C220.02559947219652 73.86329740403838, 220.30917556545995 147.9292677494749, 220.00062087218376 311.7699444380682 M218.78508033205668 310.1279092739368 C145.18835526692465 310.5138258850977, 66.16378271091072 310.8866603760372, -0.7707969958477731 310.7756225145674 M219.62128432398285 311.23617350678035 C143.99074742623452 311.714711402964, 67.25270699646033 311.8947572702612, -0.6152796637658188 312.3748781907964 M-1.397626865929252 312.01952869067236 C2.1826692897791924 215.37841967794887, -0.2102809402444894 119.53096284821989, -0.4234934983949653 0.04301739537431498 M0.02562360012288392 311.13554498574797 C0.20589350084360042 193.25363551554128, 1.1570449847109976 76.02561430413665, -0.5039507821367513 0.10710990857120677" stroke="#8bc34a" stroke-width="1" fill="none"></path></g><g transform="translate(297.73403874771043 110.10212053571396) rotate(0 109.92980196886447 155.88532366071433)"><path d="M1.6576777434892387 -1.459342181785586 C50.51275147791821 -3.2069588065674437, 99.27560035293007 -2.97267489685553, 219.4437702621608 0.5809601530199779 M0.4628679409660853 0.3391370498643463 C47.20928556976979 0.7096084290143211, 92.99941549972291 0.34353723015083826, 219.0836166322316 -0.1435783706141848 M219.21371624210028 1.3746845429056238 C220.07388283629476 123.08492128659522, 218.76785013483018 246.3842020436574, 219.01601333116736 313.08600663862313 M220.01904605036017 0.16241530500538132 C219.75093163408573 81.97776644050465, 220.78583393558017 164.56086970362358, 220.48506451514936 312.08430385892626 M219.17365679284723 311.45939307438914 C134.8749734593044 312.39098696106004, 48.56979345239024 313.40300993227675, 0.21257673317161851 312.76499836318607 M220.33093463553033 311.451929835255 C137.22027850766173 312.70255651516504, 53.272381435541675 312.4234324362647, 0.6169660593461265 311.0844483663741 M-0.6412685438754204 310.5952056672542 C-0.8675935869824295 229.29481097922417, -1.9651245129769435 149.07695339308606, 0.7957144809228501 -0.03784047577220289 M-0.6679871177328262 311.1867575571377 C0.175823774071326 209.24261283875444, 0.17740003174448993 107.20296311247976, -0.28276833166005333 0.23188860140283576" stroke="#8bc34a" stroke-width="1" fill="none"></path></g><g transform="translate(544.1703368246335 110.7451493818678) rotate(0 109.92980196886447 155.8853236607143)"><path d="M-1.3042397614224097 -1.2445127606944402 C53.31540703362286 -2.575442479540212, 106.66744729255076 -0.726654544412083, 220.7086881771867 0.4365881066963082 M-0.7812389291985138 -0.5180785053316032 C54.56225661680194 2.3523114258111186, 109.79508993726675 1.7105104789717815, 219.14119787527383 0.16893354674265887 M219.97588721903958 0.7725489593022421 C221.59491433988796 122.26969830714849, 219.7042714676403 242.96626955190004, 219.065419773087 311.4562177522122 M220.5674758620368 0.36908770115156175 C220.78335938972424 107.34070619184185, 220.54076369889347 213.6908227230666, 220.36732193529306 312.2374233100581 M219.2917222965628 310.0489709869288 C167.73656473139877 311.76047127918065, 112.40905691335146 311.5675081673047, -0.6235296952501413 311.16498997878034 M219.6806534384672 311.1638265909479 C170.07109473229858 311.95810202149414, 120.84303953894151 311.0664450847313, 0.8412266062795107 312.6013656005382 M0.0473897397595216 312.70708437026053 C-2.1730454097298537 224.36976249260812, 0.552867612376319 137.63685559723, -0.06585094258084719 -1.41115150132544 M-0.21315472525264537 312.3405136246425 C-1.9896852343756686 193.12223825381707, -1.8753864111738787 75.58282470021113, 0.09145316719487226 -0.2557680224810035" stroke="#8bc34a" stroke-width="1" fill="none"></path></g><g transform="translate(793.9960579784797 110.89418784340614) rotate(0 109.92980196886447 155.8853236607143)"><path d="M-0.42431513679805277 0.3359348571854091 C43.30895925367317 0.3976006386614195, 90.2711486896998 0.3475777504105223, 219.16945274764706 1.337074764240772 M-0.2635343260713479 -0.5855474041816437 C86.27562055449341 0.8732698041746727, 171.16891602390066 2.330054085723276, 220.52761361824128 -0.4098201852537645 M220.3871527273182 1.394859875432253 C221.24362488707158 79.33916133582869, 221.60897950847303 157.79842292386584, 219.87056618931788 312.81022684215 M220.47284589144073 0.003761343809129358 C218.03851463851706 66.98403021237627, 218.0691707765167 133.8117750201513, 219.99048564807188 312.1133752741259 M221.3178567693724 313.0856964726238 C171.3742727103556 310.15135151900637, 123.80860458535075 312.09408532453347, -0.723343120026854 312.87955017274635 M219.73686937050132 311.45368375977097 C151.04517625638888 310.97428475380144, 82.40803466414432 310.0531663287552, 0.754897793794319 311.6101485524338 M-1.0119365425118017 311.331946929773 C0.19360383888638577 193.9907622188967, -0.5199768364576041 76.05029212519716, -0.3661936074655367 -0.23702678321243195 M-0.3325295804402951 312.20628591204763 C1.1334015981794394 216.2084323868384, 2.1920423274702494 119.90010897515523, -0.6887830844370686 0.427957998075672" stroke="#8bc34a" stroke-width="1" fill="none"></path></g><g transform="translate(122.35567622481699 124.41045673076928) rotate(0 40 11.5)"><text x="0" y="18" font-family="Helvetica, Segoe UI Emoji" font-size="20px" fill="#2196f3" text-anchor="start" style="white-space: pre;" direction="ltr">&lt;Admin&gt;</text></g><g transform="translate(366.95904160943223 123.74798213727331) rotate(0 40 11.5)"><text x="0" y="18" font-family="Helvetica, Segoe UI Emoji" font-size="20px" fill="#2196f3" text-anchor="start" style="white-space: pre;" direction="ltr">&lt;Admin&gt;</text></g><g transform="translate(613.3953396863553 124.1941105769231) rotate(0 40 11.5)"><text x="0" y="18" font-family="Helvetica, Segoe UI Emoji" font-size="20px" fill="#2196f3" text-anchor="start" style="white-space: pre;" direction="ltr">&lt;Admin&gt;</text></g><g transform="translate(863.2210608402015 124.34314903846143) rotate(0 40 11.5)"><text x="0" y="18" font-family="Helvetica, Segoe UI Emoji" font-size="20px" fill="#2196f3" text-anchor="start" style="white-space: pre;" direction="ltr">&lt;Admin&gt;</text></g><g transform="translate(91.2069382440477 187.59553857600724) rotate(0 71.02509014423083 101.30153245192312)"><path d="M-0.2916296683251858 -1.2557197250425816 C50.180702362763554 -1.3281711401181961, 99.20638293511206 0.43784117086355434, 142.38172683721572 0.0834549032151699 M142.6913326519261 -0.5046289817613081 C141.5087190498404 63.865990280529665, 143.62880267669115 132.49951732077596, 142.29769373934315 202.5511320797201 M140.62377605443984 200.6442844326107 C91.77401090083391 202.72933061142552, 41.85906401505025 202.0378424646436, 0.9526351727545261 203.25548893757744 M0.6013897042637353 202.957006929676 C-0.04871525867924409 130.8877821584942, -1.209949949369359 56.824810350346674, -1.1101767772452418 -1.6972448271918574" stroke="#2196f3" stroke-width="2.5" fill="none" stroke-dasharray="12 8"></path></g><g transform="translate(335.81030362866295 186.73616357600724) rotate(0 71.02509014423083 101.30153245192312)"><path d="M1.8234974704682827 -1.9536030255258083 C55.52330623572345 -0.48766227300748244, 107.31020835425011 1.8658570474804936, 140.3016051337698 -1.4712921343743801 M143.0285121526282 0.003987515934687071 C142.04325705190027 52.505633728820825, 141.41561121549964 106.2194781128495, 143.77989232154195 202.83566446144437 M141.94558802103788 201.82972408630533 C96.46774554456059 202.72483309782066, 53.572479819792264 205.81423422372856, -0.7002893127501011 202.93764914371653 M-1.207028245906329 201.00437994067948 C0.9851031936638515 153.15283537790486, 1.1644631397439622 107.84589942591568, 1.5560359902311212 -0.1380859352647007" stroke="#2196f3" stroke-width="2.5" fill="none" stroke-dasharray="12 8"></path></g><g transform="translate(582.2466017055863 187.37919242216105) rotate(0 71.02509014423083 101.30153245192312)"><path d="M0.4094848670065403 -1.755984727293253 C51.32617984914924 1.3963886414920923, 101.90938255223921 1.5232980166828272, 141.07211062913925 -0.40052515640854836 M140.72001384270527 1.415073887531467 C139.14016838296303 43.14380561050428, 138.93036160923646 86.45892587184129, 143.68898728536948 203.3711993300378 M143.1447567701915 202.90441448040886 C103.27989660184616 201.7703432845784, 66.5059826310106 202.93132935044295, 0.845575574785471 203.38163537331505 M0.14453365036121593 204.17987496462112 C-2.2641938339651078 158.94962370006238, -0.5254958859023513 115.1331281615107, -0.9874275934118135 1.5885900986287824" stroke="#2196f3" stroke-width="2.5" fill="none" stroke-dasharray="12 8"></path></g><g transform="translate(832.0723228594325 187.5282308836994) rotate(0 71.02509014423083 101.30153245192312)"><path d="M-1.7650958932936192 1.0561348237097263 C47.15937569593842 0.7231895684180027, 92.15446114625445 1.2671729086813694, 143.873858480213 -1.2300059758126736 M142.60826536394612 -1.382480755416191 C139.75832333484846 46.01344862516905, 142.87888475558353 87.92453822823641, 141.20122630839438 203.43022672675062 M142.54979327177793 203.42138255932016 C96.39732100759929 204.39495405585336, 48.736727252942146 205.44789049059915, -1.6899980939924717 200.70506979324503 M0.729025507683035 202.09461922500032 C-0.7532546748526161 121.3883977235707, -1.2307214442019183 43.85226445261938, -1.4696720656029876 -1.06645270355854" stroke="#2196f3" stroke-width="2.5" fill="none" stroke-dasharray="12 8"></path></g><g transform="translate(98.810546875 161.47314274267387) rotate(0 63 11.5)"><text x="0" y="18" font-family="Helvetica, Segoe UI Emoji" font-size="20px" fill="#2196f3" text-anchor="start" style="white-space: pre;" direction="ltr">AdminContext</text></g><g transform="translate(343.41391225961524 160.61376774267387) rotate(0 63 11.5)"><text x="0" y="18" font-family="Helvetica, Segoe UI Emoji" font-size="20px" fill="#2196f3" text-anchor="start" style="white-space: pre;" direction="ltr">AdminContext</text></g><g transform="translate(589.8502103365386 161.25679658882768) rotate(0 63 11.5)"><text x="0" y="18" font-family="Helvetica, Segoe UI Emoji" font-size="20px" fill="#2196f3" text-anchor="start" style="white-space: pre;" direction="ltr">AdminContext</text></g><g transform="translate(839.6759314903848 161.40583505036602) rotate(0 63 11.5)"><text x="0" y="18" font-family="Helvetica, Segoe UI Emoji" font-size="20px" fill="#2196f3" text-anchor="start" style="white-space: pre;" direction="ltr">AdminContext</text></g><g transform="translate(136.32671664907753 76.0028627685831) rotate(0 24 11.5)"><text x="0" y="18" font-family="Helvetica, Segoe UI Emoji" font-size="20px" fill="#8bc34a" text-anchor="start" style="white-space: pre;" direction="ltr">/login</text></g><g transform="translate(380.5479584408224 75.3435639880953) rotate(0 28 11.5)"><text x="0" y="18" font-family="Helvetica, Segoe UI Emoji" font-size="20px" fill="#8bc34a" text-anchor="start" style="white-space: pre;" direction="ltr">/editor</text></g><g transform="translate(601.9330428685898 75.98659283424911) rotate(0 52.5 11.5)"><text x="0" y="18" font-family="Helvetica, Segoe UI Emoji" font-size="20px" fill="#8bc34a" text-anchor="start" style="white-space: pre;" direction="ltr">/playground</text></g><g transform="translate(844.3921774839746 76.34205914131593) rotate(0 57.5 11.5)"><text x="0" y="18" font-family="Helvetica, Segoe UI Emoji" font-size="20px" fill="#8bc34a" text-anchor="start" style="white-space: pre;" direction="ltr">/app-settings</text></g><g transform="translate(123.78380408653834 207.49669471153823) rotate(0 36 11.5)"><text x="0" y="18" font-family="Helvetica, Segoe UI Emoji" font-size="20px" fill="#ff9800" text-anchor="start" style="white-space: pre;" direction="ltr">&lt;Login&gt;</text></g><g transform="translate(368.3871694711536 206.42771605300163) rotate(0 38 11.5)"><text x="0" y="18" font-family="Helvetica, Segoe UI Emoji" font-size="20px" fill="#ff9800" text-anchor="start" style="white-space: pre;" direction="ltr">&lt;Editor&gt;</text></g><g transform="translate(589.8234675480767 207.28034855769204) rotate(0 62.5 11.5)"><text x="0" y="18" font-family="Helvetica, Segoe UI Emoji" font-size="20px" fill="#ff9800" text-anchor="start" style="white-space: pre;" direction="ltr">&lt;Playground&gt;</text></g><g transform="translate(836.2826021634614 207.6231116127263) rotate(0 65.5 11.5)"><text x="0" y="18" font-family="Helvetica, Segoe UI Emoji" font-size="20px" fill="#ff9800" text-anchor="start" style="white-space: pre;" direction="ltr">&lt;AppSettings&gt;</text></g><g transform="translate(116.11463341346143 237.87830528846132) rotate(0 44.546875 66.39347956730771)"><path d="M0.0834549032151699 0.45163309946656227 C32.63807600179569 0.12544585386116525, 64.42932658646019 -0.711125005094218, 87.69768064841622 -1.6636702977120876 M-0.028992174193263054 0.5187595169991255 C30.094535076693845 0.854814681757125, 61.394577906804585 -1.10249784256157, 88.94768649525935 -0.6314373333007097 M89.74617403373117 1.1605322398245335 C87.84792909487999 40.310529006698545, 88.46764776572502 77.10579326014482, 89.09178024157876 133.70475038570856 M88.14624101109797 0.793596712872386 C88.27904117046847 30.291027055628206, 88.49408703981891 61.98495817658227, 88.51983320899302 133.2495404394487 M87.86064105853433 133.38524564785456 C68.82754885403551 131.7332625825678, 49.08845918249568 131.12248365476475, 1.3940486274659634 132.90825554413294 M89.26811611838633 133.61385976394212 C65.69964874118446 131.06497545283617, 42.68721354476871 131.61787487309755, 0.030137958005070686 133.57632999738252 M-1.7798090614378452 131.6237544683883 C-1.5393473750835815 98.15903425979673, 1.0204729192966064 59.114239740902406, 0.30016451701521873 1.2414008416235447 M-0.8793702702969313 132.70464163144624 C-0.2888378397364322 94.26408907159905, 0.017619620190173046 57.69325506338758, 0.2489254493266344 -0.1196355540305376" stroke="#ff9800" stroke-width="4" fill="none"></path></g><g transform="translate(360.7179987980767 237.01893028846132) rotate(0 44.546875 66.39347956730771)"><path d="M-0.4796944297850132 0.6701798476278782 C16.276858867536056 -0.721417003573734, 35.30824965875361 1.8177788916212734, 89.87618857249612 1.0923329629004002 M-0.8951578717678785 -0.16562810726463795 C27.713592233398213 0.5041022349818374, 53.56862110138169 -0.07825797305267801, 90.05685305781657 -0.05229613371193409 M87.91171198710794 1.8430796898901463 C87.10901009713771 35.03619320345837, 86.5251421896136 69.85003807078635, 89.54890220984811 131.43928071541285 M89.97014451213175 0.4394951146095991 C90.99320533181478 27.9079404600066, 90.9967205157404 55.57441246250809, 88.91422277875239 132.8284622939447 M89.33897274360055 133.93401547951197 C69.27694837803134 134.24708518469453, 47.0236970532336 133.85899683916688, -0.7353276647627354 133.78525337261652 M89.80546528287226 131.99537866433656 C59.03947161558895 133.29602946164417, 29.59849206268553 132.34534115912723, -0.823513625189662 132.960757604442 M1.114954050630331 132.73393711132502 C1.3641700434368365 99.9642722395592, 0.09613618132288371 66.48843442467815, -1.6362910903990269 -1.407224651426077 M-0.39621460251510143 133.11188112815415 C1.2409227204769058 94.18129064069694, -0.05318859095879369 55.235225833781726, 0.7604529280215502 -0.17671147175133228" stroke="#ff9800" stroke-width="4" fill="none"></path></g><g transform="translate(606.7877103365386 237.66195913461513) rotate(0 44.546875 66.39347956730771)"><path d="M0.9794805087149143 0.5036361776292324 C17.927692125813326 -0.5683451741823228, 36.061698573234004 -1.970252022136119, 87.89846742525691 -1.4851654209196568 M-0.8287337142974138 0.1948771495372057 C34.68126860802875 0.3846133702975931, 67.15266428667816 0.03726032912556554, 89.63499727658922 0.5472882408648729 M87.9809402264654 -0.44057828560471535 C88.90717935031093 42.61542290526633, 86.4367355055157 85.65744323065886, 90.12808037176723 132.9483347131083 M89.80516376905138 0.654045881703496 C88.1982728287152 52.411839074051954, 87.93771857466018 102.7224295839053, 88.10071047954256 133.77626713608896 M88.3744630850851 132.08828928006386 C52.97456638470172 134.64206895411345, 19.503872717765603 133.06478521406981, -1.400023814290762 132.23741950524544 M90.06416615657503 133.74525317048227 C56.953683462907755 132.7395211223674, 25.743436899001225 132.42608455458404, 0.6560671608895063 131.80488243197595 M-0.09227025136351585 130.80965556634163 C0.3475964008508383 92.53427060062594, -0.09578598154204498 47.85696531630674, 1.5969917811453342 0.39026766642928123 M0.12814405374228954 132.42857732867395 C0.08006768926321572 102.30535850271863, 0.34705936416327066 71.6496098458307, -0.6616401989012957 -0.03404116444289684" stroke="#ff9800" stroke-width="4" fill="none"></path></g><g transform="translate(856.9800180288462 237.81099759615347) rotate(0 44.546875 66.39347956730771)"><path d="M-0.7961396612226963 1.542413119226694 C33.25655378924564 -1.6747752414102428, 61.24729274142297 -1.0527813420648449, 87.74280684813851 0.623116496950388 M0.770597817376256 -0.4727574307471514 C19.378037993313033 -0.3478379148879315, 39.98902011566094 -0.44001143163826717, 90.07098788209254 0.24980649165809155 M89.1091102920472 1.456657413393259 C88.07535341100075 43.371188283611104, 91.6433676751075 92.25691437477622, 89.10429077967996 133.60093506855463 M89.27714127488429 0.48022994212806225 C88.87075249745968 35.47161649037271, 89.0162526209605 72.9750555746281, 89.85225248523051 132.46042369922196 M88.25932103022927 134.06615933460688 C64.34909551402666 132.53943075511353, 37.387413546408034 133.33106424186127, -0.7312811054289341 133.1167189745376 M89.96457958407694 132.60181211551225 C54.94956750787674 132.4137787028435, 18.716051479650176 131.94973705254824, -0.30735319666564465 132.54080288728272 M-0.5131099857389927 132.45483752769923 C1.1486232822066649 94.31233000355945, -0.8417959864014284 57.712550903491945, 1.2208324037492275 -1.1990386210381985 M-0.9651219230145216 133.38661330064332 C-1.2673847469894943 85.45229075511872, -0.6835492047874985 37.92980101904239, 0.655464293435216 -0.08309158869087696" stroke="#ff9800" stroke-width="4" fill="none"></path></g></svg>