<?xml version="1.0" encoding="UTF-8" standalone="no"?>
<!-- Created with Inkscape (http://www.inkscape.org/) -->

<svg
   xmlns:dc="http://purl.org/dc/elements/1.1/"
   xmlns:cc="http://creativecommons.org/ns#"
   xmlns:rdf="http://www.w3.org/1999/02/22-rdf-syntax-ns#"
   xmlns:svg="http://www.w3.org/2000/svg"
   xmlns="http://www.w3.org/2000/svg"
   xmlns:sodipodi="http://sodipodi.sourceforge.net/DTD/sodipodi-0.dtd"
   xmlns:inkscape="http://www.inkscape.org/namespaces/inkscape"
   width="450mm"
   height="100mm"
   viewBox="0 0 450 100"
   version="1.1"
   id="svg1995"
   inkscape:version="0.92.4 (5da689c313, 2019-01-14)"
   sodipodi:docname="ReactBricks-Logo_V.svg"
   inkscape:export-filename="/Users/nestohuis/Kopies/99designs/ReactBricks/ReactBricks-Logo_H.png"
   inkscape:export-xdpi="299.974"
   inkscape:export-ydpi="299.974">
  <defs
     id="defs1989" />
  <sodipodi:namedview
     id="base"
     pagecolor="#ffffff"
     bordercolor="#666666"
     borderopacity="1.0"
     inkscape:pageopacity="0.0"
     inkscape:pageshadow="2"
     inkscape:zoom="0.35"
     inkscape:cx="804.00366"
     inkscape:cy="148.57143"
     inkscape:document-units="mm"
     inkscape:current-layer="layer1"
     showgrid="false"
     inkscape:window-width="1440"
     inkscape:window-height="817"
     inkscape:window-x="0"
     inkscape:window-y="1"
     inkscape:window-maximized="1" />
  <metadata
     id="metadata1992">
    <rdf:RDF>
      <cc:Work
         rdf:about="">
        <dc:format>image/svg+xml</dc:format>
        <dc:type
           rdf:resource="http://purl.org/dc/dcmitype/StillImage" />
        <dc:title></dc:title>
      </cc:Work>
    </rdf:RDF>
  </metadata>
  <g
     inkscape:label="Layer 1"
     inkscape:groupmode="layer"
     id="layer1"
     transform="translate(0,-197)">
    <g
       transform="matrix(6.6679482,0,0,6.6679482,-210.3068,-1556.9577)"
       id="g2125">
      <path
         style="font-style:normal;font-variant:normal;font-weight:600;font-stretch:normal;font-size:6.8580904px;line-height:1.25;font-family:Montserrat;-inkscape-font-specification:'Montserrat Semi-Bold';letter-spacing:0px;word-spacing:0px;fill:#23192d;fill-opacity:1;stroke:none;stroke-width:4.32088709"
         d="M 846.20898 126.58203 C 834.22573 126.58203 823.27838 129.29152 813.36914 134.70703 C 803.57512 140.12254 795.85494 147.5535 790.20898 157.00195 C 784.56302 166.45024 781.74023 176.99322 781.74023 188.63086 C 781.74023 200.38359 784.50636 211.04193 790.03711 220.60547 C 795.56784 230.16918 803.17277 237.7155 812.85156 243.24609 C 822.53034 248.66177 833.30383 251.37109 845.17188 251.37109 C 853.92886 251.37109 862.62775 249.41183 871.26953 245.49414 C 880.02653 241.57645 887.63146 236.27657 894.08398 229.59375 L 878.00977 212.13672 C 873.63126 216.51526 868.61861 220.02965 862.97266 222.67969 C 857.44193 225.21464 851.97021 226.48242 846.55469 226.48242 C 839.7565 226.48242 833.53267 224.81016 827.88672 221.46875 C 822.24075 218.01192 817.80633 213.40369 814.58008 207.64258 C 811.35381 201.76622 809.74023 195.31391 809.74023 188.28516 C 809.74023 181.25657 811.35381 174.86088 814.58008 169.09961 C 817.80633 163.3385 822.24075 158.78884 827.88672 155.44727 C 833.53267 152.10586 839.7565 150.43359 846.55469 150.43359 C 852.20066 150.43359 857.78763 151.87531 863.31836 154.75586 C 868.96433 157.52133 873.86172 161.3795 878.00977 166.33398 L 893.91016 146.80469 C 887.91852 140.58256 880.65935 135.6852 872.13281 132.11328 C 863.60626 128.42611 854.96598 126.58203 846.20898 126.58203 z M 1598.3184 127.10156 C 1589.7918 127.10156 1582.3021 128.42613 1575.8496 131.07617 C 1569.3971 133.72638 1564.3844 137.52972 1560.8125 142.48438 C 1557.2406 147.43903 1555.4551 153.14128 1555.4551 159.59375 C 1555.4551 166.9681 1557.1839 172.90285 1560.6406 177.39648 C 1564.2126 181.89028 1568.5337 185.28931 1573.6035 187.59375 C 1578.6734 189.89819 1585.241 192.25999 1593.3066 194.67969 C 1599.8744 196.6387 1605.0589 198.4242 1608.8613 200.03711 C 1612.7789 201.65035 1616.0041 203.84017 1618.5391 206.60547 C 1621.074 209.37077 1622.3418 212.88515 1622.3418 217.14844 C 1622.3418 222.56395 1619.98 226.88501 1615.2559 230.11133 C 1610.6469 233.22239 1604.3098 234.77734 1596.2441 234.77734 C 1589.4459 234.77734 1582.4173 233.28097 1575.1582 230.28516 C 1568.0143 227.17409 1561.562 222.79446 1555.8008 217.14844 L 1548.3691 231.49414 C 1554.476 237.25542 1561.7352 241.86365 1570.1465 245.32031 C 1578.5578 248.77698 1587.1981 250.50586 1596.0703 250.50586 C 1604.8273 250.50586 1612.5475 249.12272 1619.2305 246.35742 C 1626.0287 243.47687 1631.2718 239.44493 1634.959 234.25977 C 1638.7614 229.07477 1640.6621 223.02482 1640.6621 216.11133 C 1640.6621 208.62189 1638.8766 202.63052 1635.3047 198.13672 C 1631.7328 193.52783 1627.4116 190.07202 1622.3418 187.76758 C 1617.272 185.46314 1610.6477 183.04277 1602.4668 180.50781 C 1595.8991 178.43287 1590.7711 176.64737 1587.084 175.15039 C 1583.3968 173.53715 1580.2849 171.40395 1577.75 168.75391 C 1575.2151 165.98844 1573.9473 162.47422 1573.9473 158.21094 C 1573.9473 153.4868 1576.0219 149.80043 1580.1699 147.15039 C 1584.4332 144.38492 1590.0788 143.00195 1597.1074 143.00195 C 1602.1773 143.00195 1607.7095 143.92399 1613.7012 145.76758 C 1619.808 147.49591 1625.6841 150.14683 1631.3301 153.71875 L 1638.2422 138.85352 C 1632.8267 135.2816 1626.6048 132.45887 1619.5762 130.38477 C 1612.6627 128.19558 1605.5774 127.10156 1598.3184 127.10156 z M 1370.1328 127.44727 C 1358.4952 127.44727 1347.837 130.1548 1338.1582 135.57031 C 1328.4794 140.98582 1320.8159 148.41678 1315.1699 157.86523 C 1309.6392 167.19826 1306.875 177.51265 1306.875 188.80469 C 1306.875 200.21181 1309.6392 210.63765 1315.1699 220.08594 C 1320.7007 229.53422 1328.2489 237.02392 1337.8125 242.55469 C 1347.3761 247.9702 1357.919 250.67969 1369.4414 250.67969 C 1377.7375 250.67969 1385.9168 249.00742 1393.9824 245.66602 C 1402.0481 242.20935 1409.1353 237.48593 1415.2422 231.49414 L 1405.2168 220.60547 C 1400.4926 225.09927 1395.0776 228.67206 1388.9707 231.32227 C 1382.8639 233.85705 1376.642 235.12305 1370.3047 235.12305 C 1361.7781 235.12305 1353.9427 233.05037 1346.7988 228.90234 C 1339.655 224.75431 1334.0094 219.10673 1329.8613 211.96289 C 1325.7133 204.81905 1323.6387 197.04218 1323.6387 188.63086 C 1323.6387 180.10429 1325.7133 172.32741 1329.8613 165.29883 C 1334.0094 158.15482 1339.655 152.50741 1346.7988 148.35938 C 1353.9427 144.21134 1361.7781 142.13867 1370.3047 142.13867 C 1376.7572 142.13867 1383.0377 143.52164 1389.1445 146.28711 C 1395.2514 148.93715 1400.6078 152.68013 1405.2168 157.51953 L 1415.0684 145.59375 C 1409.3072 139.83264 1402.4524 135.39817 1394.502 132.28711 C 1386.6667 129.06079 1378.5441 127.44727 1370.1328 127.44727 z M 421.75586 128.48438 L 421.75586 249.46875 L 449.06445 249.46875 L 449.06445 214.90234 L 474.29883 214.90234 L 476.89062 214.90234 L 496.07617 249.46875 L 527.01367 249.46875 L 501.26172 209.54492 C 508.63602 206.08809 514.22301 201.07554 518.02539 194.50781 C 521.94301 187.82483 523.90234 179.81545 523.90234 170.48242 C 523.90234 157.11645 519.58123 146.80402 510.93945 139.54492 C 502.29767 132.17057 490.08446 128.48438 474.29883 128.48438 L 421.75586 128.48438 z M 546.99414 128.48438 L 546.99414 249.46875 L 641.01758 249.46875 L 641.01758 226.82812 L 574.30273 226.82812 L 574.30273 200.03711 L 632.54883 200.03711 L 632.54883 177.39648 L 574.30273 177.39648 L 574.30273 151.125 L 639.11719 151.125 L 639.11719 128.48438 L 546.99414 128.48438 z M 701.1582 128.48438 L 648.61719 249.46875 L 676.78906 249.46875 L 686.29492 225.96289 L 742.29297 225.96289 L 751.79883 249.46875 L 781.00781 249.46875 L 729.33008 128.48438 L 701.1582 128.48438 z M 898.29297 128.48438 L 898.29297 151.64453 L 935.10742 151.64453 L 935.10742 249.46875 L 962.41602 249.46875 L 962.41602 151.64453 L 999.40234 151.64453 L 999.40234 128.48438 L 898.29297 128.48438 z M 1018.166 128.48438 L 1018.166 249.46875 L 1070.709 249.46875 C 1084.4206 249.46875 1095.1355 246.58745 1102.8555 240.82617 C 1110.6907 234.94981 1114.6074 226.82719 1114.6074 216.45703 C 1114.6074 208.27623 1112.189 201.47801 1107.3496 196.0625 C 1102.6255 190.53106 1096.0578 187.13204 1087.6465 185.86523 C 1094.4447 184.25216 1099.8011 181.08368 1103.7188 176.35938 C 1107.6364 171.51998 1109.5957 165.6438 1109.5957 158.73047 C 1109.5957 149.28219 1106.0247 141.90784 1098.8809 136.60742 C 1091.8522 131.19191 1082.1727 128.48438 1069.8438 128.48438 L 1018.166 128.48438 z M 1141.3789 128.48438 L 1141.3789 249.46875 L 1157.9707 249.46875 L 1157.9707 211.79102 L 1188.7363 211.79102 C 1190.4647 211.79102 1192.7112 211.67549 1195.4766 211.44531 L 1219.5 249.46875 L 1238.5117 249.46875 L 1210.3398 208.50586 C 1218.8664 205.51005 1225.3774 200.67127 1229.8711 193.98828 C 1234.48 187.3053 1236.7832 179.06749 1236.7832 169.27344 C 1236.7832 156.25323 1232.5793 146.22797 1224.168 139.19922 C 1215.8719 132.05538 1204.0611 128.48438 1188.7363 128.48438 L 1141.3789 128.48438 z M 1266.2793 128.48438 L 1266.2793 249.46875 L 1282.8711 249.46875 L 1282.8711 128.48438 L 1266.2793 128.48438 z M 1438.4395 128.48438 L 1438.4395 249.46875 L 1455.0312 249.46875 L 1455.0312 217.83984 L 1477.3281 193.64258 L 1519.8457 249.46875 L 1539.8945 249.46875 L 1488.9082 180.67969 L 1536.7832 128.48438 L 1516.9062 128.48438 L 1455.0312 196.4082 L 1455.0312 128.48438 L 1438.4395 128.48438 z M 1157.9707 143.52148 L 1188.7363 143.52148 C 1199.1065 143.52148 1207.0572 145.76809 1212.5879 150.26172 C 1218.1186 154.64026 1220.8828 161.14919 1220.8828 169.79102 C 1220.8828 178.66319 1218.1186 185.40479 1212.5879 190.01367 C 1207.0572 194.50747 1199.1065 196.75391 1188.7363 196.75391 L 1157.9707 196.75391 L 1157.9707 143.52148 z M 1034.7578 143.69336 L 1068.9805 143.69336 C 1076.47 143.57827 1082.2308 145.07643 1086.2637 148.1875 C 1090.4117 151.2984 1092.4844 155.73482 1092.4844 161.49609 C 1092.4844 167.37246 1090.4117 171.92407 1086.2637 175.15039 C 1082.2308 178.26146 1076.47 179.81641 1068.9805 179.81641 L 1034.7578 179.81641 L 1034.7578 143.69336 z M 449.06445 151.125 L 474.29883 151.125 C 481.90359 151.125 487.72303 152.85371 491.75586 156.31055 C 495.90391 159.65196 497.97656 164.66467 497.97656 171.34766 C 497.97656 178.1459 495.90391 183.33042 491.75586 186.90234 C 487.72303 190.35901 481.90359 192.08789 474.29883 192.08789 L 449.06445 192.08789 L 449.06445 151.125 z M 714.4668 157.00195 L 733.47852 204.01367 L 695.2832 204.01367 L 714.4668 157.00195 z M 1034.7578 194.85352 L 1068.9805 194.85352 C 1077.9679 194.85352 1084.9966 196.58045 1090.0664 200.03711 C 1095.1362 203.49377 1097.6699 208.27594 1097.6699 214.38281 C 1097.6699 220.7202 1095.1362 225.67613 1090.0664 229.24805 C 1084.9966 232.70706 1077.9679 234.37737 1068.9805 234.25977 L 1034.7578 234.25977 L 1034.7578 194.85352 z "
         transform="matrix(0.03967987,0,0,0.03967987,31.539957,263.04309)"
         id="path2217" />
      <g
         transform="matrix(0.45707395,0,0,0.45707395,-5.476545,228.6835)"
         id="g2123">
        <path
           style="color:#000000;font-style:normal;font-variant:normal;font-weight:normal;font-stretch:normal;font-size:medium;line-height:normal;font-family:sans-serif;font-variant-ligatures:normal;font-variant-position:normal;font-variant-caps:normal;font-variant-numeric:normal;font-variant-alternates:normal;font-feature-settings:normal;text-indent:0;text-align:start;text-decoration:none;text-decoration-line:none;text-decoration-style:solid;text-decoration-color:#000000;letter-spacing:normal;word-spacing:normal;text-transform:none;writing-mode:lr-tb;direction:ltr;text-orientation:mixed;dominant-baseline:auto;baseline-shift:baseline;text-anchor:start;white-space:normal;shape-padding:0;clip-rule:nonzero;display:inline;overflow:visible;visibility:visible;opacity:1;isolation:auto;mix-blend-mode:normal;color-interpolation:sRGB;color-interpolation-filters:linearRGB;solid-color:#000000;solid-opacity:1;vector-effect:none;fill:#b43278;fill-opacity:1;fill-rule:nonzero;stroke:none;stroke-width:6.3499999;stroke-linecap:round;stroke-linejoin:miter;stroke-miterlimit:4;stroke-dasharray:none;stroke-dashoffset:0;stroke-opacity:1;color-rendering:auto;image-rendering:auto;shape-rendering:auto;text-rendering:auto;enable-background:accumulate"
           d="m 89.441569,80.202363 c -4.314359,-0.08215 -4.314359,6.431634 0,6.349484 h 2.601907 c 4.314357,0.08215 4.314357,-6.431634 0,-6.349484 z m 13.696321,8.201051 c -4.293622,-0.06072 -4.293622,6.410722 0,6.35 h 2.60191 c 4.29362,0.06072 4.29362,-6.410724 0,-6.35 z m -13.712341,8.201565 c -4.293532,-0.06063 -4.293532,6.410631 0,6.350001 h 2.601907 c 4.293531,0.0606 4.293531,-6.410625 0,-6.350001 z"
           id="path2119"
           inkscape:connector-curvature="0" />
        <path
           style="color:#000000;font-style:normal;font-variant:normal;font-weight:normal;font-stretch:normal;font-size:medium;line-height:normal;font-family:sans-serif;font-variant-ligatures:normal;font-variant-position:normal;font-variant-caps:normal;font-variant-numeric:normal;font-variant-alternates:normal;font-feature-settings:normal;text-indent:0;text-align:start;text-decoration:none;text-decoration-line:none;text-decoration-style:solid;text-decoration-color:#000000;letter-spacing:normal;word-spacing:normal;text-transform:none;writing-mode:lr-tb;direction:ltr;text-orientation:mixed;dominant-baseline:auto;baseline-shift:baseline;text-anchor:start;white-space:normal;shape-padding:0;clip-rule:nonzero;display:inline;overflow:visible;visibility:visible;opacity:1;isolation:auto;mix-blend-mode:normal;color-interpolation:sRGB;color-interpolation-filters:linearRGB;solid-color:#000000;solid-opacity:1;vector-effect:none;fill:#f65a8e;fill-opacity:1;fill-rule:nonzero;stroke:none;stroke-width:6.3499999;stroke-linecap:round;stroke-linejoin:miter;stroke-miterlimit:4;stroke-dasharray:none;stroke-dashoffset:0;stroke-opacity:1;color-rendering:auto;image-rendering:auto;shape-rendering:auto;text-rendering:auto;enable-background:accumulate"
           d="m 99.752893,80.202362 c -4.314356,-0.08215 -4.314356,6.431635 0,6.349484 h 5.970697 c 4.31436,0.08215 4.31436,-6.431634 0,-6.349484 z m -10.327018,8.201052 c -4.293624,-0.06072 -4.293624,6.410722 0,6.35 h 5.970696 c 4.293624,0.06072 4.293624,-6.410725 0,-6.35 z m 10.34252,8.201564 c -4.293528,-0.06063 -4.293528,6.410632 0,6.350002 h 5.971215 c 4.29353,0.0606 4.29353,-6.410626 0,-6.350002 z"
           id="path2121"
           inkscape:connector-curvature="0" />
      </g>
    </g>
  </g>
</svg>
